#!OML:ASF E:\Style4\Style4.ASF
:FULLY-SPECIFIED
:DEGREES
928
root 0.487086 16.9306 -0.571034 7.21915 -3.27802 4.30568
lowerback 7.17555 1.35485 1.65311
upperback -0.984557 1.95866 0.0970878
thorax -4.99672 0.923026 -1.04948
lowerneck 2.88884 -2.43175 -5.63743
upperneck 0.660307 -3.41077 1.94934
head -0.147152 -1.72495 1.58454
rclavicle 2.67365e-014 0
rhumerus -93.708 56.9525 -129.82
rradius 85.2542
rwrist 1.9334
rhand -10.518 35.5664
rfingers 7.12502
rthumb 15.4848 6.16656
lclavicle 2.67365e-014 0
lhumerus -45.3646 -12.0641 89.636
lradius 46.0844
lwrist 9.5412
lhand -16.77 30.8709
lfingers 7.12502
lthumb 9.45728 60.6387
rfemur -29.7467 4.39329 11.5661
rtibia 52.4356
rfoot -27.4166 -14.6094
rtoes -17.0194
lfemur -27.1025 -0.0283861 -25.6028
ltibia 49.5781
lfoot -28.555 9.05345
ltoes -17.2797
929
root 0.489918 16.9312 -0.571962 7.18715 -3.25978 4.2808
lowerback 7.17774 1.36383 1.74429
upperback -1.00348 1.98144 0.14527
thorax -5.01582 0.932063 -1.05356
lowerneck 2.77372 -2.27341 -5.57653
upperneck 0.746214 -3.19129 1.93929
head -0.110893 -1.6158 1.56673
rclavicle 3.77691e-015 7.95139e-016
rhumerus -93.7252 56.9016 -129.774
rradius 85.2846
rwrist 1.93425
rhand -10.3615 35.6237
rfingers 7.12502
rthumb 15.6355 6.23553
lclavicle 3.77691e-015 7.95139e-016
lhumerus -45.441 -11.8888 89.9113
lradius 46.6996
lwrist 8.68831
lhand -16.5422 31.1295
lfingers 7.12502
lthumb 9.67707 60.8873
rfemur -29.6818 4.40265 11.5825
rtibia 52.3842
rfoot -27.4318 -14.6019
rtoes -16.8333
lfemur -27.0681 -0.0390831 -25.581
ltibia 49.5506
lfoot -28.5515 8.99288
ltoes -17.0151
930
root 0.49371 16.9341 -0.571031 7.12709 -3.21894 4.25465
lowerback 7.1739 1.38543 1.88948
upperback -1.01002 2.02429 0.167531
thorax -5.01519 0.949397 -1.11661
lowerneck 2.72322 -2.11501 -5.51154
upperneck 0.758735 -2.9755 1.96748
head -0.107541 -1.5079 1.56243
rclavicle 7.15625e-015 1.59028e-015
rhumerus -93.6693 56.8149 -129.683
rradius 85.3317
rwrist 1.87651
rhand -10.1349 35.5785
rfingers 7.12502
rthumb 15.8538 6.20759
lclavicle 7.15625e-015 1.59028e-015
lhumerus -45.4779 -11.6535 90.0146
lradius 47.413
lwrist 7.69688
lhand -16.2793 31.3631
lfingers 7.12502
lthumb 9.93072 61.1088
rfemur -29.57 4.37392 11.6075
rtibia 52.3254
rfoot -27.4008 -14.6593
rtoes -17.0826
lfemur -26.9886 -0.0579782 -25.5553
ltibia 49.5195
lfoot -28.5219 8.91894
ltoes -16.8889
931
root 0.49563 16.9364 -0.571879 7.09959 -3.22036 4.23096
lowerback 7.13058 1.43338 2.03257
upperback -1.00004 2.10012 0.175352
thorax -4.97319 0.983571 -1.19558
lowerneck 2.56715 -1.97271 -5.46394
upperneck 0.840767 -2.77575 2.00336
head -0.0637806 -1.40854 1.56167
rclavicle -6.95746e-016 3.97569e-015
rhumerus -93.514 56.753 -129.504
rradius 85.3966
rwrist 1.79357
rhand -9.87667 35.4622
rfingers 7.12502
rthumb 16.1024 6.11123
lclavicle -6.95746e-016 3.97569e-015
lhumerus -45.4164 -11.4925 90.0074
lradius 48.1702
lwrist 6.74107
lhand -16.1909 31.2286
lfingers 7.12502
lthumb 10.016 60.9703
rfemur -29.513 4.39438 11.6235
rtibia 52.2705
rfoot -27.4393 -14.5621
rtoes -16.8575
lfemur -26.9462 -0.0202 -25.538
ltibia 49.4926
lfoot -28.451 8.85297
ltoes -16.578
932
root 0.494282 16.9372 -0.57415 7.13439 -3.21664 4.23334
lowerback 7.04005 1.48849 2.10014
upperback -1.00303 2.17804 0.189711
thorax -4.92059 1.02115 -1.22426
lowerneck 2.35431 -1.83233 -5.45104
upperneck 0.982265 -2.5766 2.08467
head 0.00904948 -1.31012 1.58084
rclavicle 1.44119e-014 7.95139e-016
rhumerus -93.27 56.6721 -129.238
rradius 85.4053
rwrist 1.75906
rhand -9.30908 35.2591
rfingers 7.12502
rthumb 16.6489 5.95319
lclavicle 1.44119e-014 7.95139e-016
lhumerus -45.3301 -11.1352 89.782
lradius 49.0734
lwrist 5.56212
lhand -15.9754 30.9064
lfingers 7.12502
lthumb 10.2238 60.638
rfemur -29.5198 4.41919 11.6183
rtibia 52.2011
rfoot -27.4275 -14.5715
rtoes -16.8217
lfemur -26.9741 0.00256226 -25.5358
ltibia 49.4531
lfoot -28.449 8.86445
ltoes -16.7284
933
root 0.491908 16.9413 -0.573849 7.12266 -3.04495 4.17762
lowerback 6.99538 1.47053 2.24118
upperback -1.02469 2.16762 0.230811
thorax -4.91488 1.01258 -1.25849
lowerneck 2.29829 -1.60495 -5.38675
upperneck 1.01513 -2.26924 2.15154
head 0.0165534 -1.1566 1.58905
rclavicle -4.57205e-015 -5.56597e-015
rhumerus -93.1345 56.5907 -129.096
rradius 85.4038
rwrist 1.72911
rhand -8.76638 35.1129
rfingers 7.12502
rthumb 17.1713 5.85159
lclavicle -4.57205e-015 -5.56597e-015
lhumerus -45.2631 -10.4602 89.2945
lradius 50.0635
lwrist 4.14698
lhand -15.3829 30.9273
lfingers 7.12502
lthumb 10.7954 60.6299
rfemur -29.4101 4.3339 11.7237
rtibia 52.1198
rfoot -27.3876 -14.6892
rtoes -16.782
lfemur -26.935 -0.114111 -25.4365
ltibia 49.4047
lfoot -28.479 8.86614
ltoes -16.9944
934
root 0.493606 16.947 -0.573286 6.92119 -2.79825 4.17815
lowerback 7.1682 1.42296 2.43308
upperback -1.00408 2.12561 0.23143
thorax -4.98606 0.985383 -1.36584
lowerneck 2.19728 -1.36051 -5.19069
upperneck 1.07399 -1.93348 2.06736
head 0.0358267 -0.988154 1.52473
rclavicle 1.27222e-014 1.43125e-014
rhumerus -93.0853 56.497 -129.04
rradius 85.4436
rwrist 1.64975
rhand -8.87696 35.1765
rfingers 7.12502
rthumb 17.0649 5.906
lclavicle 1.27222e-014 1.43125e-014
lhumerus -45.1139 -9.81291 88.681
lradius 51.059
lwrist 2.95345
lhand -14.9442 31.1725
lfingers 7.12502
lthumb 11.2186 60.8526
rfemur -29.0586 4.17129 11.7712
rtibia 52.0304
rfoot -27.408 -14.7413
rtoes -16.756
lfemur -26.6843 -0.270134 -25.4083
ltibia 49.3394
lfoot -28.4222 8.70923
ltoes -16.7199
935
root 0.494888 16.9484 -0.577221 6.82432 -2.84112 4.13616
lowerback 7.2577 1.48435 2.61455
upperback -0.997666 2.22601 0.226712
thorax -5.01927 1.02924 -1.48627
lowerneck 2.01199 -1.12521 -5.00962
upperneck 1.25726 -1.60641 1.97852
head 0.109064 -0.8251 1.46076
rclavicle 1.08338e-014 -7.95139e-016
rhumerus -93.0266 56.391 -128.977
rradius 85.4625
rwrist 1.65039
rhand -8.79739 35.1036
rfingers 7.12502
rthumb 17.1415 5.83973
lclavicle 1.08338e-014 -7.95139e-016
lhumerus -44.8307 -9.16509 87.9063
lradius 52.0535
lwrist 1.82267
lhand -14.6751 31.1434
lfingers 7.12502
lthumb 11.4781 60.8092
rfemur -28.9369 4.21291 11.8085
rtibia 51.952
rfoot -27.4059 -14.6681
rtoes -16.6488
lfemur -26.5637 -0.189563 -25.3749
ltibia 49.2639
lfoot -28.3026 8.62269
ltoes -16.3412
936
root 0.492022 16.9495 -0.581233 6.89892 -2.93647 4.12082
lowerback 7.1363 1.57525 2.68988
upperback -1.03625 2.35124 0.234405
thorax -4.98295 1.08947 -1.53091
lowerneck 1.91334 -0.845932 -4.9406
upperneck 1.38651 -1.22841 2.02118
head 0.151612 -0.636841 1.46004
rclavicle 1.59028e-014 4.77083e-015
rhumerus -92.9796 56.3265 -128.903
rradius 85.4665
rwrist 1.6413
rhand -8.43138 34.9928
rfingers 7.12502
rthumb 17.4937 5.75992
lclavicle 1.59028e-014 4.77083e-015
lhumerus -44.6068 -8.38328 86.9769
lradius 53.2362
lwrist 0.746385
lhand -14.3767 31.3463
lfingers 7.12502
lthumb 11.7659 60.9958
rfemur -29.0378 4.3176 11.8097
rtibia 51.9044
rfoot -27.4171 -14.5708
rtoes -16.4082
lfemur -26.6168 -0.0663255 -25.3558
ltibia 49.1529
lfoot -28.1858 8.61059
ltoes -16.4057
937
root 0.491843 16.9546 -0.580424 6.79412 -2.714 4.24083
lowerback 7.14546 1.55835 2.75869
upperback -1.0275 2.33299 0.194733
thorax -4.9755 1.07814 -1.60875
lowerneck 1.85159 -0.56997 -4.85298
upperneck 1.47163 -0.856542 2.06513
head 0.174553 -0.451145 1.45709
rclavicle -3.58806e-014 -7.95139e-016
rhumerus -92.965 56.2796 -128.91
rradius 85.4415
rwrist 1.57323
rhand -8.68331 35.0404
rfingers 7.12502
rthumb 17.2513 5.78607
lclavicle -3.58806e-014 -7.95139e-016
lhumerus -44.4346 -7.59103 85.9359
lradius 54.5454
lwrist -0.170644
lhand -14.2277 31.7636
lfingers 7.12502
lthumb 11.9095 61.4048
rfemur -28.816 4.11577 11.714
rtibia 51.8548
rfoot -27.4972 -14.5402
rtoes -16.2364
lfemur -26.4206 -0.234564 -25.451
ltibia 48.9952
lfoot -28.1469 8.46639
ltoes -16.0967
938
root 0.488327 16.9599 -0.579005 6.78971 -2.54203 4.4397
lowerback 7.05583 1.57768 2.70979
upperback -1.0401 2.3473 0.102335
thorax -4.93523 1.08597 -1.67592
lowerneck 1.77317 -0.320444 -4.65754
upperneck 1.5719 -0.517442 2.08183
head 0.205882 -0.281257 1.42668
rclavicle -7.55382e-015 -3.97569e-015
rhumerus -92.8876 56.1646 -128.9
rradius 85.3996
rwrist 1.59176
rhand -8.71709 34.9497
rfingers 7.12502
rthumb 17.2187 5.69261
lclavicle -7.55382e-015 -3.97569e-015
lhumerus -44.1538 -6.90147 84.7404
lradius 55.8318
lwrist -1.06586
lhand -14.1003 32.0723
lfingers 7.12502
lthumb 12.0324 61.7064
rfemur -28.7303 3.94156 11.5303
rtibia 51.8054
rfoot -27.4724 -14.6214
rtoes -16.4865
lfemur -26.3125 -0.37578 -25.6221
ltibia 48.8123
lfoot -28.1329 8.23551
ltoes -15.4644
939
root 0.481129 16.9662 -0.57995 6.92382 -2.69031 4.4529
lowerback 6.85056 1.72574 2.72424
upperback -1.0835 2.53838 0.0622606
thorax -4.85299 1.18074 -1.73928
lowerneck 1.65942 -0.0620801 -4.33054
upperneck 1.76441 -0.163031 2.00239
head 0.271297 -0.103556 1.34291
rclavicle 3.00165e-014 1.74931e-014
rhumerus -92.6847 55.9868 -128.733
rradius 85.3675
rwrist 1.67062
rhand -8.33536 34.6622
rfingers 7.12502
rthumb 17.5861 5.43761
lclavicle 3.00165e-014 1.74931e-014
lhumerus -43.7252 -6.23792 83.4431
lradius 57.0759
lwrist -1.95716
lhand -13.9177 32.7329
lfingers 7.12502
lthumb 12.2085 62.3566
rfemur -28.8786 4.05433 11.5045
rtibia 51.7275
rfoot -27.4478 -14.6
rtoes -16.3416
lfemur -26.3773 -0.241842 -25.6178
ltibia 48.6386
lfoot -28.1533 8.10068
ltoes -14.9727
940
root 0.476933 16.9729 -0.579997 6.91465 -2.62765 4.38648
lowerback 6.79471 1.78963 2.88565
upperback -1.11532 2.63678 0.074426
thorax -4.84354 1.22499 -1.82579
lowerneck 1.39323 0.193548 -4.17962
upperneck 2.22314 0.188998 2.00884
head 0.445781 0.0708663 1.31915
rclavicle -3.39922e-014 7.95139e-015
rhumerus -92.5964 55.8175 -128.593
rradius 85.3655
rwrist 1.66074
rhand -8.39255 34.7609
rfingers 7.12502
rthumb 17.5311 5.5314
lclavicle -3.39922e-014 7.95139e-015
lhumerus -43.3081 -5.47576 82.056
lradius 58.271
lwrist -2.90587
lhand -13.8282 33.3483
lfingers 7.12502
lthumb 12.2947 62.9669
rfemur -28.7863 4.02907 11.6021
rtibia 51.6365
rfoot -27.4789 -14.6363
rtoes -16.147
lfemur -26.3117 -0.245079 -25.5217
ltibia 48.5175
lfoot -28.0835 8.10761
ltoes -15.138
